<mxfile host="app.diagrams.net" modified="2023-12-17T20:12:03.526Z" agent="Mozilla/5.0 (X11; Linux x86_64; rv:120.0) Gecko/20100101 Firefox/120.0" etag="bnDLwc6Hsq6qP1pDqce8" version="22.1.11" type="github">
  <diagram name="Seite-1" id="4M6kFxMEuVfRUumBrV-h">
    <mxGraphModel dx="908" dy="665" grid="1" gridSize="9.8425" guides="1" tooltips="1" connect="1" arrows="0" fold="1" page="1" pageScale="1" pageWidth="827" pageHeight="1169" math="0" shadow="0">
      <root>
        <mxCell id="0" />
        <mxCell id="1" parent="0" />
        <mxCell id="49QPGvvawWRBsnt8dxA5-1" value="" style="verticalLabelPosition=bottom;html=1;verticalAlign=top;align=center;shape=mxgraph.floorplan.room;fillColor=strokeColor;" vertex="1" parent="1">
          <mxGeometry width="787.4" height="354.33" as="geometry" />
        </mxCell>
        <mxCell id="49QPGvvawWRBsnt8dxA5-2" value="" style="verticalLabelPosition=bottom;html=1;verticalAlign=top;align=center;shape=mxgraph.floorplan.wallU;fillColor=strokeColor;direction=west;" vertex="1" parent="1">
          <mxGeometry x="196.85" y="354.33" width="393.7" height="78.74" as="geometry" />
        </mxCell>
        <mxCell id="49QPGvvawWRBsnt8dxA5-3" value="" style="verticalLabelPosition=bottom;html=1;verticalAlign=top;align=center;shape=mxgraph.floorplan.stairsRest;" vertex="1" parent="1">
          <mxGeometry x="118.11" y="354.33000000000004" width="78.74" height="78.74" as="geometry" />
        </mxCell>
        <mxCell id="49QPGvvawWRBsnt8dxA5-4" value="" style="verticalLabelPosition=bottom;html=1;verticalAlign=top;align=center;shape=mxgraph.floorplan.stairsRest;direction=west;" vertex="1" parent="1">
          <mxGeometry x="590.5525000000001" y="354.33250000000004" width="78.74" height="78.74" as="geometry" />
        </mxCell>
        <mxCell id="49QPGvvawWRBsnt8dxA5-5" value="" style="verticalLabelPosition=bottom;html=1;verticalAlign=top;align=center;shape=mxgraph.floorplan.window;" vertex="1" parent="1">
          <mxGeometry x="236.22" y="9.840000000000003" width="314.96" height="10" as="geometry" />
        </mxCell>
      </root>
    </mxGraphModel>
  </diagram>
</mxfile>
